<svg width="30" height="35" xmlns="http://www.w3.org/2000/svg" xmlns:xlink="http://www.w3.org/1999/xlink" overflow="hidden"><defs><clipPath id="clip0"><rect x="430" y="248" width="30" height="35"/></clipPath></defs><g clip-path="url(#clip0)" transform="translate(-430 -248)"><path d="M29.3705 18.6562C30.2076 17.8192 30.2076 16.4598 29.3705 15.6228L18.6562 4.90848C17.8192 4.07143 16.4598 4.07143 15.6228 4.90848 14.7857 5.74554 14.7857 7.10491 15.6228 7.94196L22.6875 15 2.14286 15C0.957589 15 0 15.9576 0 17.1429 0 18.3281 0.957589 19.2857 2.14286 19.2857L22.6808 19.2857 15.6295 26.3437C14.7924 27.1808 14.7924 28.5402 15.6295 29.3772 16.4665 30.2143 17.8259 30.2143 18.6629 29.3772L29.3772 18.6629Z" fill="#FFFFFF" transform="matrix(1 0 0 1.02083 430 248)"/></g></svg>