<svg width="88" height="97" xmlns="http://www.w3.org/2000/svg" xmlns:xlink="http://www.w3.org/1999/xlink" overflow="hidden"><defs><clipPath id="clip0"><rect x="1750" y="1272" width="88" height="97"/></clipPath></defs><g clip-path="url(#clip0)" transform="translate(-1750 -1272)"><path d="M1753.5 1302.5C1753.5 1287.59 1765.81 1275.5 1781 1275.5 1796.19 1275.5 1808.5 1287.59 1808.5 1302.5 1808.5 1317.41 1796.19 1329.5 1781 1329.5 1765.81 1329.5 1753.5 1317.41 1753.5 1302.5Z" stroke="#FFFFFF" stroke-width="6.875" stroke-miterlimit="8" fill="none" fill-rule="evenodd"/><path d="M1800.29 1340.13C1797.24 1336.74 1797.53 1331.52 1800.92 1328.48L1800.92 1328.48C1804.31 1325.44 1809.53 1325.72 1812.57 1329.12L1835.52 1354.71C1838.56 1358.1 1838.28 1363.31 1834.89 1366.35L1834.89 1366.35C1831.49 1369.4 1826.28 1369.11 1823.24 1365.72Z" fill="#FFFFFF" fill-rule="evenodd"/></g></svg>