<svg width="107" height="107" xmlns="http://www.w3.org/2000/svg" xmlns:xlink="http://www.w3.org/1999/xlink" overflow="hidden"><defs><clipPath id="clip0"><rect x="1491" y="1263" width="107" height="107"/></clipPath></defs><g clip-path="url(#clip0)" transform="translate(-1491 -1263)"><path d="M1517.5 1307.83C1517.5 1303.78 1520.78 1300.5 1524.83 1300.5L1565.17 1300.5C1569.22 1300.5 1572.5 1303.78 1572.5 1307.83L1572.5 1337.17C1572.5 1341.22 1569.22 1344.5 1565.17 1344.5L1524.83 1344.5C1520.78 1344.5 1517.5 1341.22 1517.5 1337.17Z" stroke="#FFFFFF" stroke-width="4.58333" stroke-miterlimit="8" fill="none" fill-rule="evenodd"/><path d="M1544.5 1283.5C1552.23 1283.5 1558.5 1287.69 1558.5 1292.86L1558.4 1293.5 1558.22 1292.25C1556.91 1287.99 1551.27 1284.78 1544.5 1284.78 1537.73 1284.78 1532.09 1287.99 1530.78 1292.25L1530.6 1293.5 1530.5 1292.86C1530.5 1287.69 1536.77 1283.5 1544.5 1283.5Z" stroke="#FFFFFF" stroke-width="4.58333" stroke-miterlimit="8" fill="none" fill-rule="evenodd"/><path d="M1494.5 1316.5C1494.5 1288.89 1516.89 1266.5 1544.5 1266.5 1572.11 1266.5 1594.5 1288.89 1594.5 1316.5 1594.5 1344.11 1572.11 1366.5 1544.5 1366.5 1516.89 1366.5 1494.5 1344.11 1494.5 1316.5Z" stroke="#FFFFFF" stroke-width="6.875" stroke-miterlimit="8" fill="none" fill-rule="evenodd"/></g></svg>