<svg width="108" height="108" xmlns="http://www.w3.org/2000/svg" xmlns:xlink="http://www.w3.org/1999/xlink" overflow="hidden"><defs><clipPath id="clip0"><rect x="1131" y="1256" width="108" height="108"/></clipPath></defs><g clip-path="url(#clip0)" transform="translate(-1131 -1256)"><path d="M1157.5 1301.83C1157.5 1297.78 1160.78 1294.5 1164.83 1294.5L1205.17 1294.5C1209.22 1294.5 1212.5 1297.78 1212.5 1301.83L1212.5 1331.17C1212.5 1335.22 1209.22 1338.5 1205.17 1338.5L1164.83 1338.5C1160.78 1338.5 1157.5 1335.22 1157.5 1331.17Z" stroke="#0D0D0D" stroke-width="4.58333" stroke-miterlimit="8" fill="none" fill-rule="evenodd"/><path d="M1185 1276.5C1192.46 1276.5 1198.5 1281.11 1198.5 1286.8L1198.41 1287.5 1198.23 1286.13C1196.97 1281.44 1191.52 1277.91 1185 1277.91 1178.48 1277.91 1173.03 1281.44 1171.77 1286.13L1171.59 1287.5 1171.5 1286.8C1171.5 1281.11 1177.54 1276.5 1185 1276.5Z" stroke="#0D0D0D" stroke-width="4.58333" stroke-miterlimit="8" fill="none" fill-rule="evenodd"/><path d="M1134.5 1310C1134.5 1282.11 1157.11 1259.5 1185 1259.5 1212.89 1259.5 1235.5 1282.11 1235.5 1310 1235.5 1337.89 1212.89 1360.5 1185 1360.5 1157.11 1360.5 1134.5 1337.89 1134.5 1310Z" stroke="#000000" stroke-width="6.875" stroke-miterlimit="8" fill="none" fill-rule="evenodd"/></g></svg>