<svg width="107" height="108" xmlns="http://www.w3.org/2000/svg" xmlns:xlink="http://www.w3.org/1999/xlink" overflow="hidden"><defs><clipPath id="clip0"><rect x="722" y="1256" width="107" height="108"/></clipPath><clipPath id="clip1"><rect x="735" y="1270" width="82" height="79"/></clipPath><clipPath id="clip2"><rect x="735" y="1270" width="82" height="79"/></clipPath><clipPath id="clip3"><rect x="735" y="1270" width="82" height="79"/></clipPath></defs><g clip-path="url(#clip0)" transform="translate(-722 -1256)"><path d="M725.5 1310C725.5 1282.11 747.886 1259.5 775.5 1259.5 803.114 1259.5 825.5 1282.11 825.5 1310 825.5 1337.89 803.114 1360.5 775.5 1360.5 747.886 1360.5 725.5 1337.89 725.5 1310Z" stroke="#FFFFFF" stroke-width="6.875" stroke-miterlimit="8" fill="none" fill-rule="evenodd"/><g clip-path="url(#clip1)"><g clip-path="url(#clip2)"><g clip-path="url(#clip3)"><path d="M52.6665 24.6874C52.6665 31.9591 46.7716 37.854 39.4999 37.854 32.2281 37.854 26.3332 31.9591 26.3332 24.6874 26.3332 17.4157 32.2281 11.5208 39.4999 11.5208 46.7716 11.5208 52.6665 17.4157 52.6665 24.6874Z" fill="#FFFFFF" transform="matrix(1.01266 0 0 1 736 1270)"/><path d="M65.8331 67.4789 65.8331 54.3123C65.8331 52.3373 64.8456 50.3623 63.1998 49.0456 59.5789 46.0832 54.9706 44.1082 50.3623 42.7915 47.0707 41.804 43.4498 41.1457 39.4999 41.1457 35.879 41.1457 32.2582 41.804 28.6374 42.7915 24.0291 44.1082 19.4208 46.4123 15.7999 49.0456 14.1541 50.3623 13.1666 52.3373 13.1666 54.3123L13.1666 67.4789 65.8331 67.4789Z" fill="#FFFFFF" transform="matrix(1.01266 0 0 1 736 1270)"/></g></g></g></g></svg>