<svg width="107" height="107" xmlns="http://www.w3.org/2000/svg" xmlns:xlink="http://www.w3.org/1999/xlink" overflow="hidden"><defs><clipPath id="clip0"><rect x="952" y="1263" width="107" height="107"/></clipPath><clipPath id="clip1"><rect x="965" y="1276" width="80" height="81"/></clipPath><clipPath id="clip2"><rect x="965" y="1276" width="80" height="81"/></clipPath><clipPath id="clip3"><rect x="965" y="1276" width="80" height="81"/></clipPath></defs><g clip-path="url(#clip0)" transform="translate(-952 -1263)"><path d="M955.5 1316.5C955.5 1288.89 977.886 1266.5 1005.5 1266.5 1033.11 1266.5 1055.5 1288.89 1055.5 1316.5 1055.5 1344.11 1033.11 1366.5 1005.5 1366.5 977.886 1366.5 955.5 1344.11 955.5 1316.5Z" stroke="#000000" stroke-width="6.875" stroke-miterlimit="8" fill="none" fill-rule="evenodd"/><g clip-path="url(#clip1)"><g clip-path="url(#clip2)"><g clip-path="url(#clip3)"><path d="M52.6667 24.6875C52.6667 31.9593 46.7718 37.8542 39.5 37.8542 32.2283 37.8542 26.3334 31.9593 26.3334 24.6875 26.3334 17.4158 32.2283 11.5208 39.5 11.5208 46.7718 11.5208 52.6667 17.4158 52.6667 24.6875Z" transform="matrix(1 0 0 1.01266 966 1276)"/><path d="M65.8334 67.4792 65.8334 54.3125C65.8334 52.3375 64.8459 50.3625 63.2001 49.0459 59.5792 46.0834 54.9709 44.1084 50.3625 42.7917 47.0709 41.8042 43.45 41.1459 39.5 41.1459 35.8792 41.1459 32.2584 41.8042 28.6375 42.7917 24.0292 44.1084 19.4208 46.4125 15.8 49.0459 14.1542 50.3625 13.1667 52.3375 13.1667 54.3125L13.1667 67.4792 65.8334 67.4792Z" transform="matrix(1 0 0 1.01266 966 1276)"/></g></g></g></g></svg>