<svg width="50" height="40" xmlns="http://www.w3.org/2000/svg" xmlns:xlink="http://www.w3.org/1999/xlink" overflow="hidden"><defs><clipPath id="clip0"><rect x="27" y="35" width="50" height="40"/></clipPath></defs><g clip-path="url(#clip0)" transform="translate(-27 -35)"><path d="M38.6277 71.6811C36.4017 70.5775 35.2794 68.8191 35.2794 66.406 35.2794 64.0865 36.3643 62.3281 38.4594 61.2619 39.3573 60.813 39.7501 60.7194 40.9473 60.7194 43.2481 60.7381 45.1 61.8418 46.1662 63.862 46.5965 64.6851 46.6713 65.0405 46.6713 66.406 46.6713 68.314 46.2785 69.3242 45.0813 70.5213 44.015 71.5876 42.874 72.0739 41.153 72.1488 39.8997 72.2236 39.6379 72.1675 38.6277 71.6811ZM42.5934 69.5673C43.9215 68.9126 44.7072 67.2291 44.3143 65.7887 44.0337 64.7225 43.51 64.0304 42.6121 63.5814 39.8062 62.1411 36.7384 64.8534 37.8608 67.7903 38.5903 69.6983 40.6854 70.4839 42.5934 69.5673Z" fill="#FFFFFF" transform="matrix(1 0 0 -1 10.1712 108.592)"/><path d="M20.2024 69.8292C19.6786 69.6422 19.2671 69.1558 19.2671 68.7069 19.2671 68.4637 19.8657 65.9197 20.5765 63.039 21.306 60.1583 21.8859 57.6891 21.8859 57.5581 21.8859 57.4085 21.6802 57.2027 21.4183 57.0905 20.8571 56.8286 20.9506 56.679 20.3708 58.9237 19.9218 60.7568 19.5103 61.2619 18.6311 61.0936 17.4152 60.8504 17.3404 60.4201 18.0886 57.4833L18.575 55.5005 17.9951 54.9767 17.4152 54.4529 17.9016 54.0601C18.1635 53.8544 18.5376 53.686 18.7059 53.686 18.9678 53.686 19.1549 53.2184 19.6412 51.2168 20.0153 49.7578 20.4082 48.6167 20.6139 48.4109 21.3435 47.6814 22.709 48.28 22.6716 49.3088 22.6716 49.7391 21.8111 53.4802 21.3996 54.8271 21.3248 55.1077 22.1852 55.6875 22.391 55.4818 22.4471 55.4257 23.027 53.2184 23.6817 50.5621 24.3551 47.9059 24.9911 45.5115 25.1034 45.2122 25.3278 44.6323 26.0012 44.3892 26.7308 44.6323 27.6848 44.969 27.6661 45.3619 26.207 51.1607 25.4775 54.1162 24.8976 56.5667 24.935 56.6228 24.9911 56.6602 26.0012 56.9408 27.2171 57.2401 29.6115 57.8574 30.6777 57.951 30.6777 57.5581 30.6777 57.4272 30.8835 57.1279 31.1454 56.9034 31.4072 56.679 31.613 56.3984 31.613 56.2861 31.613 56.1739 31.7814 55.8746 31.9871 55.6127 32.3238 55.1825 32.3425 54.8084 32.3613 48.7851 32.3613 43.9776 32.4361 42.3128 32.6044 41.9574 32.9224 41.3588 39.0206 36.1398 39.7875 35.8031 40.5732 35.4664 41.3775 35.4664 42.2006 35.8218 42.9114 36.1211 49.0656 41.3027 49.3649 41.8639 49.4585 42.0322 49.5707 45.1 49.6081 48.6728 49.6829 55.0141 49.7016 55.2012 50.0945 55.7249 50.3189 56.0429 50.506 56.4545 50.506 56.679 50.506 56.8847 50.6744 57.2214 50.8801 57.4272 51.2916 57.8387 51.3478 58.1193 51.0485 58.2128 50.9175 58.2503 50.9549 58.3812 51.142 58.5308 51.4039 58.7553 51.4413 58.7366 51.4413 58.3812 51.4413 58.1567 51.5535 57.9884 51.7219 57.9884 52.0586 57.9884 56.4732 56.5667 56.8099 56.3422 56.9782 56.23 56.6602 54.8458 55.5379 50.9736 53.9479 45.3619 53.9292 45.1187 54.8832 44.6885 55.4444 44.4266 56.23 44.5949 56.4732 45.0439 56.5667 45.2122 57.2401 47.5131 57.9884 50.1319 58.7366 52.7507 59.3726 54.9206 59.3913 54.958 59.4474 55.0141 59.8028 54.8084 60.5698 54.322 60.6072 54.3033 60.3266 53.1622 59.9525 51.7967 59.2043 49.1031 59.223 48.6354 60.1208 48.2239 60.9065 47.8872 61.6921 48.3361 61.9353 49.2714 62.8145 52.6385 62.7584 52.5449 64.1426 53.05 64.3484 53.1061 64.2923 53.2558 63.9181 53.6486 63.6376 53.9479 63.4131 54.2846 63.4131 54.4155 63.4131 54.5465 63.7872 56.0429 64.2549 57.7452 64.9844 60.4201 65.0592 60.9065 64.8534 61.318 64.5167 62.0288 63.6937 62.2346 63.0764 61.7857 62.6836 61.4864 62.4591 60.9439 61.8418 58.7179 61.449 57.2401 61.0936 56.0055 61.0561 55.9681 61.0374 55.9307 60.7756 56.0429 60.4763 56.23 60.1957 56.4171 59.9338 56.5854 59.8964 56.6041 59.8777 56.6228 60.6072 59.3165 61.5425 62.6087 62.4591 65.8823 63.226 68.6694 63.226 68.8004 63.226 69.2493 62.4778 69.7731 61.8231 69.7731 61.3554 69.7731 61.1123 69.6609 60.9065 69.3616 60.7568 69.1184 59.9525 66.4996 59.1107 63.5066 58.269 60.5324 57.5394 58.0258 57.502 57.9697 57.4833 57.9135 56.2487 58.269 54.7709 58.774 51.8715 59.7467 51.4413 59.8215 51.4413 59.3913 51.4413 59.0172 51.0859 59.0359 50.9362 59.3913 50.8801 59.5597 50.5247 59.8964 50.1693 60.1395 49.6268 60.5137 49.4398 60.5511 49.2153 60.3827 48.9721 60.1957 48.9534 60.1957 49.1592 60.4201 49.5146 60.813 49.4398 61.0374 48.8412 61.3928 48.2987 61.6921 48.28 61.6921 47.9994 61.2619 47.6253 60.682 47.6253 60.6072 48.0368 60.2892 48.3174 60.0647 48.28 60.0647 47.8498 60.2518L47.326 60.4763 47.7188 61.1123C47.9433 61.4677 48.0929 61.767 48.0555 61.8044 48.0181 61.8418 47.7936 61.9727 47.5505 62.085 47.1763 62.2907 47.0828 62.2533 46.7648 61.8792 46.3346 61.3741 46.2972 61.0561 46.6339 60.9065 46.7461 60.8504 46.6339 60.8504 46.372 60.9065 45.9979 60.9813 45.7921 60.9065 45.5676 60.5698L45.2683 60.1395 41.0034 60.1957 36.7571 60.2331 36.3456 60.7568C36.1024 61.0374 35.9154 61.1871 35.9154 61.0748 35.9154 60.9813 35.7096 61.2058 35.4477 61.5986 34.9053 62.3656 34.8304 62.403 34.3067 62.0288 33.97 61.767 33.97 61.7296 34.2693 61.2245 34.4563 60.9439 34.6621 60.7194 34.7369 60.7381 34.8304 60.7568 35.0549 60.813 35.2607 60.8878 35.5226 60.9626 35.4851 60.9252 35.1671 60.7194 34.5311 60.3266 34.5498 60.3266 34.157 61.0748L33.8016 61.7296 33.2778 61.3928C32.9973 61.2245 32.7541 61 32.7167 60.8878 32.698 60.7943 32.38 60.495 32.0058 60.2518 31.6317 59.9899 31.2202 59.6345 31.0892 59.4474 30.8835 59.1668 30.7712 59.1481 30.5655 59.3165 30.3597 59.4848 29.7424 59.41 27.8531 59.0359 26.5063 58.7553 25.1969 58.456 24.9537 58.3625 24.617 58.2315 24.4674 58.2503 24.4112 58.4186 24.3738 58.5308 23.7378 61.0374 23.0083 63.9743 22.2788 66.9111 21.5679 69.399 21.4557 69.5112 21.1564 69.8105 20.5578 69.9602 20.2024 69.8292ZM44.3892 58.3812C44.5388 58.269 45.0252 57.6143 45.4928 56.9221L46.3346 55.6501 46.2223 49.552 46.1101 43.4726 43.8654 41.5272C42.6308 40.4609 41.471 39.4695 41.3027 39.3199 41.0221 39.0954 40.7228 39.2824 38.4594 41.2653L35.9154 43.4539 35.9154 47.962C35.9154 50.4499 35.8218 53.1809 35.7283 54.0227L35.5226 55.5753 36.5888 57.0531C37.5802 58.4373 37.6924 58.5308 38.422 58.6057 39.8997 58.7366 44.146 58.587 44.3892 58.3812ZM34.0635 57.0344C33.7455 56.5667 33.5771 56.1365 33.6707 56.0242 33.7455 55.9307 33.7081 55.4257 33.5771 54.9019L33.3153 53.9666 33.3153 54.7709C33.2965 55.2012 33.2217 55.5566 33.1282 55.5566 32.9224 55.5566 33.6333 57.0344 34.1009 57.5581 34.6995 58.2315 34.6808 57.9135 34.0635 57.0344ZM48.4671 56.6602C48.7476 56.1178 48.8973 55.5753 48.8225 55.4631 48.7289 55.3695 48.6354 55.0702 48.5793 54.8084 48.5045 54.3968 48.5045 54.4155 48.4671 54.9393 48.4671 55.2573 48.3361 55.5753 48.2239 55.6127 48.0368 55.6875 48.0555 55.7624 48.2613 55.912 48.5606 56.1178 48.5606 56.1365 47.7188 57.4085 47.4756 57.7826 47.4756 57.8387 47.7001 57.7826 47.8498 57.7265 48.2052 57.2214 48.4671 56.6602Z" fill="#FFFFFF" transform="matrix(1 0 0 -1 10.1712 108.592)"/><path d="M38.3097 52.8255C37.7486 52.5262 37.2248 51.6845 37.2248 51.0672 37.2248 50.3563 37.7486 49.6455 39.3947 48.0929L41.0221 46.5778 41.7142 47.1389C42.0883 47.4382 42.9301 48.2426 43.5661 48.916 44.6136 50.0571 44.7072 50.2067 44.7072 50.9924 44.7072 51.7219 44.6136 51.9464 44.0712 52.4888 43.3229 53.2371 42.5186 53.3306 41.6207 52.7881 41.0782 52.4514 41.0408 52.4514 40.4983 52.7881 39.8249 53.1996 39.0019 53.2184 38.3097 52.8255Z" fill="#FFFFFF" transform="matrix(1 0 0 -1 10.1712 108.592)"/><path d="M22.2788 21.3809C22.3162 21.2873 22.5968 20.5204 22.9148 19.6786 23.5133 18.0138 23.9623 17.6958 24.3364 18.6685 25.4214 21.4557 25.4401 21.5305 25.1221 21.4744 24.935 21.437 24.6357 20.9319 24.3551 20.1463 24.0932 19.4542 23.8501 18.9304 23.8126 18.9678 23.7565 19.0239 23.5321 19.5851 23.2889 20.2398 23.027 20.988 22.7464 21.437 22.5406 21.4744 22.3536 21.5118 22.2413 21.4744 22.2788 21.3809Z" fill="#FFFFFF" transform="matrix(1 0 0 -1 10.1712 108.592)"/><path d="M28.2459 19.8283C28.2459 18.4627 28.3021 18.1447 28.5265 18.1447 28.751 18.1447 28.8071 18.4627 28.8071 19.8283 28.8071 21.1938 28.751 21.5118 28.5265 21.5118 28.3021 21.5118 28.2459 21.1938 28.2459 19.8283Z" fill="#FFFFFF" transform="matrix(1 0 0 -1 10.1712 108.592)"/><path d="M31.8001 21.3248C31.8001 21.2312 32.0058 21.1377 32.2677 21.1377 32.7354 21.1377 32.7354 21.119 32.7354 19.6412 32.7354 18.444 32.7915 18.1447 33.016 18.1447 33.2404 18.1447 33.2965 18.444 33.2965 19.6412 33.2965 21.119 33.2965 21.1377 33.7642 21.1377 34.0261 21.1377 34.2318 21.2312 34.2318 21.3248 34.2318 21.437 33.7081 21.5118 33.016 21.5118 32.3238 21.5118 31.8001 21.437 31.8001 21.3248Z" fill="#FFFFFF" transform="matrix(1 0 0 -1 10.1712 108.592)"/><path d="M37.5054 20.0715C37.2248 19.2671 36.9629 18.5002 36.9068 18.3879 36.8694 18.2383 36.9629 18.1447 37.1313 18.1447 37.2996 18.1447 37.4867 18.3131 37.5428 18.5189 37.6176 18.8182 37.8047 18.893 38.3846 18.893 38.9644 18.893 39.1515 18.8182 39.2263 18.5189 39.3199 18.1635 39.8436 17.9764 39.8436 18.2944 39.8436 18.3692 39.6004 19.1175 39.3011 19.9405 38.8896 21.0442 38.6651 21.437 38.3846 21.4744 38.0666 21.5305 37.9356 21.306 37.5054 20.0715ZM38.8896 19.4167C38.9083 19.3232 38.6651 19.2671 38.3471 19.2671 37.9917 19.2671 37.8234 19.3419 37.8795 19.5103 37.9169 19.6225 38.0666 19.9966 38.1788 20.2959L38.3846 20.8571 38.6277 20.2024C38.7774 19.847 38.8896 19.4916 38.8896 19.4167Z" fill="#FFFFFF" transform="matrix(1 0 0 -1 10.1712 108.592)"/><path d="M42.8366 19.8283 42.8366 18.1447 43.6783 18.1447C44.146 18.1447 44.5201 18.2383 44.5201 18.3318 44.5201 18.444 44.2769 18.5189 43.9589 18.5189L43.3977 18.5189 43.3977 20.0153C43.3977 21.2125 43.3416 21.5118 43.1172 21.5118 42.8927 21.5118 42.8366 21.1938 42.8366 19.8283Z" fill="#FFFFFF" transform="matrix(1 0 0 -1 10.1712 108.592)"/><path d="M47.326 19.8283C47.326 18.4627 47.3821 18.1447 47.6066 18.1447 47.8311 18.1447 47.8872 18.4627 47.8872 19.8283 47.8872 21.1938 47.8311 21.5118 47.6066 21.5118 47.3821 21.5118 47.326 21.1938 47.326 19.8283Z" fill="#FFFFFF" transform="matrix(1 0 0 -1 10.1712 108.592)"/><path d="M50.8801 21.3248C50.8801 21.2312 51.0859 21.1377 51.3478 21.1377 51.8154 21.1377 51.8154 21.119 51.8154 19.6412 51.8154 18.444 51.8715 18.1447 52.096 18.1447 52.3205 18.1447 52.3766 18.444 52.3766 19.6412 52.3766 21.119 52.3766 21.1377 52.8442 21.1377 53.1061 21.1377 53.3119 21.2312 53.3119 21.3248 53.3119 21.437 52.7881 21.5118 52.096 21.5118 51.4039 21.5118 50.8801 21.437 50.8801 21.3248Z" fill="#FFFFFF" transform="matrix(1 0 0 -1 10.1712 108.592)"/><path d="M56.4919 20.3895C56.7912 19.7722 57.0531 19.0239 57.0531 18.7059 57.0531 18.3318 57.1466 18.1447 57.3337 18.1447 57.5394 18.1447 57.6143 18.3505 57.6143 18.7995 57.6143 19.1736 57.82 19.8844 58.0819 20.3895 58.6244 21.4557 58.6244 21.5118 58.3064 21.5118 58.1754 21.5118 57.8948 21.1564 57.6704 20.7262L57.2962 19.9218 56.8847 20.7262C56.6602 21.1564 56.361 21.5118 56.2113 21.5118 55.9868 21.5118 56.0617 21.2499 56.4919 20.3895Z" fill="#FFFFFF" transform="matrix(1 0 0 -1 10.1712 108.592)"/><path d="M27.4977 13.3934 27.4977 10.6624 28.0589 10.6624 28.6201 10.6624 28.6201 11.8783C28.6201 12.5704 28.6949 13.0941 28.8071 13.0941 28.9194 13.0941 28.9942 12.5704 28.9942 11.8783L28.9942 10.6624 29.5554 10.6624 30.1165 10.6624 30.1165 13.3934 30.1165 16.1058 29.6115 16.0497C29.1251 15.9936 29.0877 15.9187 29.0316 15.0209 28.9942 14.4784 28.9007 14.0294 28.8071 14.0294 28.7136 14.0294 28.6201 14.4784 28.5827 15.0209 28.5265 15.9187 28.4891 15.9936 28.0215 16.0497L27.4977 16.1058 27.4977 13.3934Z" fill="#FFFFFF" transform="matrix(1 0 0 -1 10.1712 108.592)"/><path d="M33.97 15.8626C33.8764 15.6007 33.4836 11.5041 33.4836 10.9804 33.4836 10.4379 34.3815 10.5688 34.5311 11.13 34.6808 11.7099 35.1297 11.7473 35.2046 11.1861 35.242 10.8681 35.4103 10.7372 35.8031 10.6998 36.3269 10.625 36.3269 10.6437 36.2334 11.448 36.1586 11.897 36.065 12.851 36.0089 13.5618 35.7844 16.1619 35.8218 16.0871 34.8678 16.0871 34.3628 16.0871 34.0074 15.9936 33.97 15.8626ZM35.0362 13.6179C35.111 12.5517 35.0736 12.3459 34.8304 12.3459 34.606 12.3459 34.5686 12.5143 34.6808 13.2064 34.7369 13.6927 34.793 14.2913 34.793 14.5532 34.793 15.4324 34.924 14.8712 35.0362 13.6179Z" fill="#FFFFFF" transform="matrix(1 0 0 -1 10.1712 108.592)"/><path d="M39.4321 15.9936C39.376 15.9374 39.7875 12.215 40.0307 10.7185 40.0307 10.6811 40.3487 10.6624 40.7602 10.6624L41.471 10.6624 41.6768 12.3085C42.2006 16.3303 42.2006 16.0871 41.6768 16.0871 41.153 16.0871 40.966 15.6007 40.966 14.2352 40.966 12.8323 40.648 13.0754 40.517 14.5719 40.3861 15.9749 40.3487 16.0871 39.9559 16.0871 39.7314 16.0871 39.4882 16.0497 39.4321 15.9936Z" fill="#FFFFFF" transform="matrix(1 0 0 -1 10.1712 108.592)"/><path d="M45.4554 13.3747 45.4554 10.6624 46.5965 10.6624C47.7188 10.6624 47.7188 10.6624 47.6627 11.1861 47.6253 11.579 47.4943 11.7099 47.1015 11.7473 46.6526 11.8034 46.5778 11.897 46.5778 12.3646 46.5778 12.8136 46.6526 12.9071 47.0454 12.9071 47.4382 12.9071 47.5131 13.0006 47.5131 13.4683 47.5131 13.9359 47.4382 14.0294 47.0454 14.0294 46.6713 14.0294 46.5778 14.123 46.5778 14.4971 46.5778 14.8712 46.6713 14.9647 47.0454 14.9647 47.4382 14.9647 47.5131 15.0583 47.5131 15.5259 47.5131 16.0871 47.4943 16.0871 46.4842 16.0871L45.4554 16.0871 45.4554 13.3747Z" fill="#FFFFFF" transform="matrix(1 0 0 -1 10.1712 108.592)"/><path d="M51.0111 15.9562C50.9362 15.9 50.8801 14.6654 50.8801 13.2438L50.8801 10.6624 51.4413 10.6624C52.0025 10.6624 52.0025 10.6811 52.0212 11.7473L52.0399 12.8136 52.2644 11.7847C52.4514 10.8681 52.5262 10.7559 52.9939 10.6998L53.4989 10.6437 53.4989 13.356 53.4989 16.0871 53.0313 16.0871C52.5824 16.0871 52.5636 16.031 52.5449 14.9273 52.5262 13.7863 52.5262 13.7676 52.3579 14.4971 52.2644 14.9086 52.1521 15.4324 52.096 15.6756 52.0025 16.0684 51.3104 16.2554 51.0111 15.9562Z" fill="#FFFFFF" transform="matrix(1 0 0 -1 10.1712 108.592)"/></g></svg>